<svg xmlns="http://www.w3.org/2000/svg" viewBox="0 0 795.3 795.3">
      <path d="m397.7 20.7a296.8 296.8 0 0 1 297 297c0 41.4-8.3 90.7-24.1 142.6-16.1 53-38.9 105.4-66 151.4-28.9 49.1-62.2 89.8-96.2 117.6-36.8 30.1-74 45.4-110.7 45.4s-73.9-15.3-110.7-45.4c-34-27.8-67.3-68.5-96.2-117.6a706.5 706.5 0 0 1-66-151.4c-15.7-51.9-24-101.2-24-142.6a296.7 296.7 0 0 1 297-297m0-20c-175.1 0-317 141.9-317 317s141.9 477 317 477 317-301.9 317-477-142-317-317.1-317zm215.8 353.5c-69.2-19.2-144.3 25.8-166.7 92.2-9.2 27.3-16.1 67.4 5.5 90.8 21.9 23.6 60.9 17.9 87.3 7.7 35-13.5 65.8-43 86.4-73.7 16.6-24.9 37.3-61.2 22.1-91.2a46.9 46.9 0 0 0-17.4-18.3 66.2 66.2 0 0 0-17.1-7.4zm-448.9 7.4a46.9 46.9 0 0 0-17.4 18.4c-15.1 30 5.5 66.3 22.1 91.2 20.6 30.7 51.4 60.3 86.4 73.7 26.4 10.2 65.4 15.9 87.3-7.7 21.6-23.3 14.7-63.4 5.5-90.7-22.4-66.4-97.5-111.4-166.7-92.2a65.9 65.9 0 0 0-17.1 7.4z"/>
</svg>